<?xml version="1.0" encoding="utf-8"?>
<!-- Generator: Adobe Illustrator 24.3.0, SVG Export Plug-In . SVG Version: 6.00 Build 0)  -->
<svg version="1.1" id="Layer_1" xmlns="http://www.w3.org/2000/svg" xmlns:xlink="http://www.w3.org/1999/xlink" x="0px" y="0px"
	 viewBox="0 0 100 100" enable-background="new 0 0 100 100" xml:space="preserve">
<g>
	<g>
		<path fill="#C8C9CF" d="M31.435,54.432c0,0,13.545,20.802,44.024,28.059c0,0,0.483,8.707-8.708,6.772
			c-9.192-1.935-34.833-13.062-42.089-29.026C23.447,51.462,31.435,54.432,31.435,54.432z"/>
		<path fill="#879291" d="M28.154,84.391c0,0,23.92-6.634,40.039-33.5c0,0,8.448,2.167,3.829,10.346
			c-4.62,8.179-22.967,29.265-40.378,31.365C22.913,91.111,28.154,84.391,28.154,84.391z"/>
	</g>
	<g>
		<path fill="#E47908" d="M46.795,12.907c0,0-3.953,5.536-3.163,10.281c0.792,4.745,1.117,6.868,1.117,6.868
			s-3.507-1.008-5.07-7.263c0,0-3.823,3.824,0.922,11.491c0,0-4.218,2.086-5.668-3.186c0,0-4.483,5.988,1.714,10.808
			c2.372,1.846-6.068-0.395-5.671-3.163c0,0-2.373,21.775,15.819,22.407c18.195,0.633,24.123-14.631,17.4-31.239
			c0,0,0.396,3.163-1.582,4.35c0,0,0.395-6.722-1.583-9.886c0,0,0.397,5.933-1.977,8.305c0,0,1.977-13.445-3.163-19.773
			c0,0,0.395,5.141-2.372,9.096c0,0-4.45-4.745-3.41-12.655C49.96,3.417,46.795,12.907,46.795,12.907z"/>
		<path fill="#FFCF00" d="M48.98,8.039c-0.943,1.453-2.083,4.868-2.083,4.868s-3.955,5.536-3.164,10.281
			c0.792,4.745,1.115,6.868,1.115,6.868s-3.505-1.008-5.069-7.263c0,0-3.822,3.824,0.923,11.491c0,0-4.218,2.086-5.668-3.186
			c0,0-4.482,5.988,1.713,10.808c2.373,1.846-6.068-0.395-5.669-3.163c0,0-2.375,21.775,15.819,22.407
			c0.716,0.025,1.405,0.018,2.083-0.006V8.039z"/>
	</g>
</g>
</svg>
