<?xml version="1.0" encoding="utf-8"?>
<!-- Generator: Adobe Illustrator 24.3.0, SVG Export Plug-In . SVG Version: 6.00 Build 0)  -->
<svg version="1.1" id="Layer_1" xmlns="http://www.w3.org/2000/svg" xmlns:xlink="http://www.w3.org/1999/xlink" x="0px" y="0px"
	 viewBox="0 0 100 100" enable-background="new 0 0 100 100" xml:space="preserve">
<g>
	<path fill="#C06C2D" d="M75.592,65.361c0.72,1.621-0.01,3.519-1.632,4.239L28.955,89.589c-1.621,0.72-3.519-0.011-4.239-1.632
		l-1.086-2.446c-0.72-1.621,0.01-3.519,1.632-4.239l45.005-19.988c1.621-0.72,3.519,0.01,4.239,1.631L75.592,65.361z"/>
	<path fill="#C06C2D" d="M75.495,86.588c-0.637,1.655-2.496,2.481-4.151,1.844l-45.958-17.69c-1.656-0.637-2.48-2.495-1.844-4.15
		l0.961-2.498c0.637-1.655,2.496-2.481,4.151-1.843l45.958,17.69c1.655,0.637,2.48,2.496,1.843,4.151L75.495,86.588z"/>
	<path fill="#ED9944" d="M49.587,79.897l-11.59-4.461l-12.76,5.667c-1.621,0.72-2.352,2.618-1.632,4.239l1.086,2.446
		c0.72,1.621,2.618,2.351,4.239,1.632l20.656-9.174V79.897z"/>
	<path fill="#ED9944" d="M50,70.381l-20.955-8.066c-1.655-0.638-3.514,0.188-4.151,1.843l-0.962,2.498
		c-0.637,1.655,0.189,3.513,1.844,4.151L50,80.131V70.381z"/>
	<path fill="#C0321F" d="M42.375,71.712c0,0-16.101-7.675-8.921-25.872c4.178-10.589,4.817-8.921,5.71-14.274
		c0.829-4.978-1.732-6.602-1.732-6.602s6.015,1.249,4.944,10.527c-1.071,9.278,0.974,7.242,0.974,7.242s1.411-3.16,2.773-7.777
		c1.128-3.827-1.785-13.381-4.282-16.237c-2.498-2.854,5.531,3.747,5.531,3.747s0.223-8.029,4.929-11.419
		c4.706-3.39-2.431,3.39,1.137,8.207c3.568,4.817,8.743,8.007,4.639,21.667c-4.104,13.66,5.352-3.647,6.066-7.572
		c0.714-3.925,3.747,4.282,1.785,9.278c-1.963,4.996-4.282,9.992-4.282,9.992s1.606-10.17,11.776-10.705
		c10.17-0.535-6.78,0.535-6.602,11.955c0.178,11.419-3.148,16.675-11.6,19.091C50.225,74.389,45.051,73.074,42.375,71.712z"/>
	<path fill="#E33E30" d="M51.242,11.852c-3.68,3.731-3.871,10.505-3.871,10.505s-8.029-6.601-5.531-3.746
		c2.498,2.854,5.411,12.41,4.282,16.236c-1.362,4.618-2.773,7.777-2.773,7.777s-2.044,2.036-0.974-7.241
		c1.07-9.278-4.944-10.527-4.944-10.527s2.562,1.624,1.732,6.602c-0.892,5.353-1.532,3.684-5.71,14.274
		c-7.179,18.196,8.921,25.871,8.921,25.871c1.963,0.999,5.272,1.971,8.867,1.855V11.852z"/>
</g>
</svg>
